Coordinates
version=1
nRows=9
nColumns=42
inDegrees=yes

Units are S.I. units (second, meters, Newtons, ...)
If the header above contains a line with 'inDegrees', this indicates whether rotational values are in degrees (yes) or radians (no).

endheader
time	pelvis_tilt	pelvis_list	pelvis_rotation	pelvis_tx	pelvis_ty	pelvis_tz	hip_flexion_r	hip_adduction_r	hip_rotation_r	knee_angle_r	knee_adduction_r	knee_angle_r_beta	ankle_angle_r	subtalar_angle_r	mtp_angle_r	hip_flexion_l	hip_adduction_l	hip_rotation_l	knee_angle_l	knee_adduction_l	knee_angle_l_beta	ankle_angle_l	subtalar_angle_l	mtp_angle_l	lumbar_extension	lumbar_bending	lumbar_rotation	arm_flex_r	arm_add_r	arm_rot_r	elbow_flex_r	pro_sup_r	wrist_flex_r	wrist_dev_r	arm_flex_l	arm_add_l	arm_rot_l	elbow_flex_l	pro_sup_l	wrist_flex_l	wrist_dev_l
      0.50000000	      6.54376076	     -1.98930870	      5.00152494	     -1.07079533	      0.88368360	     -0.16073306	      1.72477799	      2.50508643	    -23.20056472	     28.53852110	     -3.41410226	      0.49809116	     23.49787537	     33.20844249	     -9.65477744	      9.69331673	     -2.75964223	      4.26063144	     56.67990614	     -3.59505924	      0.98925098	      5.43381106	     -6.63184414	     -9.65477744	    -30.79338445	      6.11840968	     -2.33245933	      8.03070259	    -11.33857229	    -15.40636696	     41.98066321	     90.00000001	      0.00000000	      0.00000000	     17.12525299	     -8.54059677	     29.84960538	     54.05680654	     90.00000001	      0.00000000	      0.00000000
      0.51000000	      6.49529058	     -1.96847740	      5.02764292	     -1.06834517	      0.88364759	     -0.16030345	      1.47881713	      2.50165636	    -23.17107464	     28.36373884	     -3.26945875	      0.49504063	     23.57288669	     33.10759287	     -9.63334534	     10.42410864	     -2.67947614	      4.25384156	     56.50385184	     -3.47662745	      0.98617825	      5.58588253	     -6.55702508	     -9.63334534	    -30.72965982	      6.08337770	     -2.36810835	      8.02846699	    -11.32995914	    -15.30686492	     42.00285460	     90.00000001	      0.00000000	      0.00000000	     17.27462599	     -8.49639911	     29.87524029	     54.17968662	     90.00000001	      0.00000000	      0.00000000
      0.52000000	      6.41670060	     -2.06416939	      5.18855002	     -1.06600923	      0.88347323	     -0.16003313	      1.25467312	      2.63830358	    -23.18103439	     28.12808151	     -3.08351783	      0.49092763	     23.68564144	     33.11054298	     -9.57187838	     11.27297432	     -2.75203206	      4.59310223	     56.45090708	     -3.15930860	      0.98525419	      5.93075407	     -6.04313758	     -9.57187838	    -30.62095911	      6.23279810	     -2.47875191	      8.00925382	    -11.36378646	    -15.02454184	     42.10254344	     90.00000001	      0.00000000	      0.00000000	     17.41538824	     -8.53493389	     30.05105984	     54.38152438	     90.00000001	      0.00000000	      0.00000000
      0.53000000	      6.39313406	     -2.03742133	      5.15709144	     -1.06367404	      0.88346018	     -0.15953709	      1.07235389	      2.62932174	    -23.12916246	     28.12217977	     -2.98613993	      0.49082463	     23.63436042	     32.85049117	     -9.55277983	     11.97502035	     -2.70893158	      4.50647595	     56.27690607	     -3.07491102	      0.98221730	      5.98929656	     -5.85623873	     -9.55277983	    -30.61079932	      6.16089629	     -2.44995474	      8.00204899	    -11.34179990	    -14.96178328	     42.19344296	     90.00000001	      0.00000000	      0.00000000	     17.58436355	     -8.50242452	     29.98434768	     54.49236875	     90.00000001	      0.00000000	      0.00000000
      0.54000000	      6.34660087	     -2.05180643	      5.39870920	     -1.06120901	      0.88335368	     -0.15953683	      0.72868290	      2.68108951	    -23.18683494	     27.74684432	     -2.79547757	      0.48427379	     23.87205197	     33.00747146	     -9.52857385	     12.74173419	     -2.59765011	      4.80499701	     56.17465020	     -3.01838702	      0.98043260	      6.22324356	     -5.40801932	     -9.52857385	    -30.50253166	      6.27927191	     -2.67895281	      7.96961669	    -11.32169493	    -14.83822262	     42.28143137	     90.00000001	      0.00000000	      0.00000000	     17.69609163	     -8.52690632	     30.09222702	     54.48863490	     90.00000001	      0.00000000	      0.00000000
      0.55000000	      6.29111724	     -2.15511591	      5.55097597	     -1.05880388	      0.88316238	     -0.15928174	      0.53015863	      2.85140947	    -23.36842223	     27.57565250	     -2.77155852	      0.48128593	     23.89163859	     33.04627525	     -9.45185547	     13.53287358	     -2.72313195	      4.98513202	     56.08284194	     -2.86183636	      0.97883025	      6.73855150	     -4.30701823	     -9.45185547	    -30.40213465	      6.41711971	     -2.72764434	      7.83440559	    -11.37706714	    -14.50749674	     42.49970519	     90.00000001	      0.00000000	      0.00000000	     17.81814681	     -8.53746955	     30.17448200	     54.59782880	     90.00000001	      0.00000000	      0.00000000
      0.56000000	      6.28057425	     -2.11306374	      5.63356618	     -1.05633959	      0.88312786	     -0.15909603	      0.25908009	      2.84489721	    -23.35728565	     27.42621651	     -2.67398079	      0.47867778	     23.97840117	     32.99427906	     -9.42347913	     14.17743359	     -2.62168593	      4.97369010	     55.88257925	     -2.90157931	      0.97533500	      6.84451170	     -3.98161450	     -9.42347913	    -30.35699735	      6.40214682	     -2.82311918	      7.79120980	    -11.36474285	    -14.40684449	     42.59158551	     90.00000001	      0.00000000	      0.00000000	     17.92410959	     -8.53943962	     30.15338941	     54.58711389	     90.00000001	      0.00000000	      0.00000000
      0.57000000	      6.30437125	     -2.09042727	      5.75246091	     -1.05381844	      0.88312820	     -0.15898981	     -0.05560234	      2.84442106	    -23.42660736	     27.28701277	     -2.56148138	      0.47624822	     24.08199719	     33.01814712	     -9.36993528	     14.76603877	     -2.57413514	      4.96170998	     55.64560886	     -2.94212996	      0.97119909	      7.11426697	     -3.14139875	     -9.36993528	    -30.33357341	      6.42955706	     -2.91395345	      7.67435640	    -11.38419516	    -14.17673119	     42.80303118	     90.00000001	      0.00000000	      0.00000000	     18.02280807	     -8.54645848	     30.12192228	     54.55721979	     90.00000001	      0.00000000	      0.00000000
      0.58000000	      6.27182982	     -2.05670862	      5.75021537	     -1.05139399	      0.88307606	     -0.15868016	     -0.23745710	      2.85609409	    -23.42476330	     27.21164202	     -2.54984005	      0.47493275	     24.09668161	     32.86665208	     -9.35349621	     15.36111802	     -2.52193596	      4.89077424	     55.32848031	     -2.99977005	      0.96566415	      7.22210220	     -2.97726222	     -9.35349621	    -30.28202991	      6.37223808	     -2.90282524	      7.63822239	    -11.36158173	    -14.10563240	     42.87998858	     90.00000001	      0.00000000	      0.00000000	     18.10291324	     -8.56336654	     30.06904764	     54.57095108	     90.00000001	      0.00000000	      0.00000000
